# xmcd
#
# Track frame offsets:
#	150
#	15517
#	39006
#	55591
#	79424
#	107310
#	125567
#	144338
#	166113
#	186912
#	205128
#	229164
#	245150
#
# Disc length: 3512 seconds
# Revision: 0
# Processed by: cddbd v1.5.2PL0 Copyright (c) Steve Scherf et al.
# Submitted via: dBpowerAMP V12.0
#
DISCID=a00db60d
DTITLE=Al Basile - At Home Next Door, Disc 2
DYEAR=2012
DGENRE=Blues
TTITLE0=Too Much Like Fate
TTITLE1=Keep That Heart
TTITLE2=Stony Ground
TTITLE3=Only Jodie Knows
TTITLE4=A Mystery To Me
TTITLE5=She Was Sayin' Giddyup (I Was Sayin' Whoa)
TTITLE6=It Is What It Is
TTITLE7=A Little Too Far
TTITLE8=Tryin' To Impress the Girl
TTITLE9=Miss Dissatisfied
TTITLE10=My Phone's Got a Mind of Its Own
TTITLE11=The Streak
TTITLE12=The Closer
EXTD=
EXTT0=
EXTT1=
EXTT2=
EXTT3=
EXTT4=
EXTT5=
EXTT6=
EXTT7=
EXTT8=
EXTT9=
EXTT10=
EXTT11=
EXTT12=
PLAYORDER=
